# xmcd
#
# Track frame offsets: 
#        150
#        39490
#        71890
#        109025
#        142035
#        173785
#
# Disc length: 2908 seconds
#
# Revision: 2
# Processed by: cddbd v1.5.2PL0 Copyright (c) Steve Scherf et al.
# Submitted via: ExactAudioCopyFreeDBPlugin 1.0
#
DISCID=540b5a06
DTITLE=McCoy Tyner Big Band - Uptown - Downtown
DYEAR=1989
DGENRE=Jazz
TTITLE0=Love Surrounds Us
TTITLE1=Three Flowers
TTITLE2=Genesis
TTITLE3=Uptown
TTITLE4=Lotus Flower
TTITLE5=Blues For Basie
EXTD=
EXTT0=
EXTT1=
EXTT2=
EXTT3=
EXTT4=
EXTT5=
PLAYORDER=
